<?xml version="1.0" encoding="utf-8"?>
<!-- Generator: Adobe Illustrator 18.0.0, SVG Export Plug-In . SVG Version: 6.00 Build 0)  -->
<!DOCTYPE svg PUBLIC "-//W3C//DTD SVG 1.1//EN" "http://www.w3.org/Graphics/SVG/1.1/DTD/svg11.dtd">
<svg version="1.1" id="Layer_1" xmlns="http://www.w3.org/2000/svg" xmlns:xlink="http://www.w3.org/1999/xlink" x="0px" y="0px"
	 width="50px" height="50px" viewBox="0 0 50 50" enable-background="new 0 0 50 50" xml:space="preserve">
<path fill="#FF7800" d="M44.7,10h-2.5v37h2.5c2.7,0,4.9-2.2,4.9-4.9V14.9C49.7,12.2,47.4,10,44.7,10z M0.3,14.9v27.1
	c0,2.7,2.2,4.9,4.9,4.9h2.5V10H5.3C2.6,10,0.3,12.2,0.3,14.9z M33.4,4.8C31.7,4.1,29,2.6,25,2.6s-6.7,1.5-8.4,2.2V10h-5.4v37h27.6
	V10h-5.4V4.8z M30.4,10H19.6V6.7c1.3-0.6,3.2-1.1,5.4-1.1s4.1,0.6,5.4,1.1V10z"/>
</svg>
